ffmpeg version N-87327-g18821e3 Copyright (c) 2000-2017 the FFmpeg developers
  built with gcc 7.2.0 (GCC)
  configuration: --enable-gpl --enable-version3 --enable-cuda --enable-cuvid --enable-d3d11va --enable-dxva2 --enable-libmfx --enable-nvenc --enable-avisynth --enable-bzlib --enable-fontconfig --enable-frei0r --enable-gnutls --enable-iconv --enable-libass --enable-libbluray --enable-libbs2b --enable-libcaca --enable-libfreetype --enable-libgme --enable-libgsm --enable-libilbc --enable-libmodplug --enable-libmp3lame --enable-libopencore-amrnb --enable-libopencore-amrwb --enable-libopenh264 --enable-libopenjpeg --enable-libopus --enable-librtmp --enable-libsnappy --enable-libsoxr --enable-libspeex --enable-libtheora --enable-libtwolame --enable-libvidstab --enable-libvo-amrwbenc --enable-libvorbis --enable-libvpx --enable-libwavpack --enable-libwebp --enable-libx264 --enable-libx265 --enable-libxavs --enable-libxvid --enable-libxml2 --enable-libzimg --enable-lzma --enable-zlib
  libavutil      55. 75.100 / 55. 75.100
  libavcodec     57.106.101 / 57.106.101
  libavformat    57. 82.100 / 57. 82.100
  libavdevice    57.  8.101 / 57.  8.101
  libavfilter     6.105.100 /  6.105.100
  libswscale      4.  7.103 /  4.  7.103
  libswresample   2.  8.100 /  2.  8.100
  libpostproc    54.  6.100 / 54.  6.100
Splitting the commandline.
Reading option '-v' ... matched as option 'v' (set logging level) with argument 'debug'.
Reading option '-nostdin' ... matched as option 'stdin' (enable or disable interaction on standard input) with argument 0.
Reading option '-progress' ... matched as option 'progress' (write program-readable progress information) with argument 'C:/Users/ydung/AppData/Local/Temp/KritaFFmpegProgress.otVWJm'.
Reading option '-r' ... matched as option 'r' (set frame rate (Hz value, fraction or abbreviation)) with argument '8'.
Reading option '-start_number' ... matched as AVOption 'start_number' with argument '0'.
Reading option '-i' ... matched as input url with argument 'C:/Users/ydung/Desktop/data/grade10_Science/grade10_physics/svgs/frame%04d.png'.
Reading option '-vf' ... matched as option 'vf' (set video filters) with argument 'palettegen'.
Reading option '-y' ... matched as option 'y' (overwrite output files) with argument '1'.
Reading option 'C:/Users/ydung/Desktop/data/grade10_Science/grade10_physics/svgs/palette.png' ... matched as output url.
Finished splitting the commandline.
Parsing a group of options: global .
Applying option v (set logging level) with argument debug.
Applying option nostdin (enable or disable interaction on standard input) with argument 0.
Applying option progress (write program-readable progress information) with argument C:/Users/ydung/AppData/Local/Temp/KritaFFmpegProgress.otVWJm.
[file @ 0000000002635380] Setting default whitelist 'file,crypto'
Applying option y (overwrite output files) with argument 1.
Successfully parsed a group of options.
Parsing a group of options: input url C:/Users/ydung/Desktop/data/grade10_Science/grade10_physics/svgs/frame%04d.png.
Applying option r (set frame rate (Hz value, fraction or abbreviation)) with argument 8.
Successfully parsed a group of options.
Opening an input file: C:/Users/ydung/Desktop/data/grade10_Science/grade10_physics/svgs/frame%04d.png.
[image2 @ 0000000002675f40] Opening 'C:/Users/ydung/Desktop/data/grade10_Science/grade10_physics/svgs/frame0000.png' for reading
[file @ 0000000000e690c0] Setting default whitelist 'file,crypto'
[AVIOContext @ 0000000000e691a0] Statistics: 287399 bytes read, 0 seeks
[image2 @ 0000000002675f40] Opening 'C:/Users/ydung/Desktop/data/grade10_Science/grade10_physics/svgs/frame0001.png' for reading
[file @ 0000000000e69380] Setting default whitelist 'file,crypto'
[AVIOContext @ 0000000000e69460] Statistics: 288652 bytes read, 0 seeks
[image2 @ 0000000002675f40] Opening 'C:/Users/ydung/Desktop/data/grade10_Science/grade10_physics/svgs/frame0002.png' for reading
[file @ 0000000000e69420] Setting default whitelist 'file,crypto'
[AVIOContext @ 0000000000e69860] Statistics: 282536 bytes read, 0 seeks
[image2 @ 0000000002675f40] Opening 'C:/Users/ydung/Desktop/data/grade10_Science/grade10_physics/svgs/frame0003.png' for reading
[file @ 0000000000e69860] Setting default whitelist 'file,crypto'
[AVIOContext @ 0000000000e69940] Statistics: 276410 bytes read, 0 seeks
[image2 @ 0000000002675f40] Opening 'C:/Users/ydung/Desktop/data/grade10_Science/grade10_physics/svgs/frame0004.png' for reading
[file @ 0000000000e698e0] Setting default whitelist 'file,crypto'
[AVIOContext @ 0000000000e69ae0] Statistics: 260767 bytes read, 0 seeks
[image2 @ 0000000002675f40] Opening 'C:/Users/ydung/Desktop/data/grade10_Science/grade10_physics/svgs/frame0005.png' for reading
[file @ 0000000000e69ae0] Setting default whitelist 'file,crypto'
[AVIOContext @ 0000000000e69bc0] Statistics: 258739 bytes read, 0 seeks
[image2 @ 0000000002675f40] Opening 'C:/Users/ydung/Desktop/data/grade10_Science/grade10_physics/svgs/frame0006.png' for reading
[file @ 0000000000e69b60] Setting default whitelist 'file,crypto'
[AVIOContext @ 0000000000e69d60] Statistics: 287399 bytes read, 0 seeks
Input #0, image2, from 'C:/Users/ydung/Desktop/data/grade10_Science/grade10_physics/svgs/frame%04d.png':
  Duration: 00:00:00.28, start: 0.000000, bitrate: N/A
    Stream #0:0, 7, 1/25: Video: png, 1 reference frame, rgba(pc), 2000x1600 [SAR 23622:23622 DAR 5:4], 0/1, 25 fps, 25 tbr, 25 tbn, 25 tbc
Successfully opened the file.
Parsing a group of options: output url C:/Users/ydung/Desktop/data/grade10_Science/grade10_physics/svgs/palette.png.
Applying option vf (set video filters) with argument palettegen.
Successfully parsed a group of options.
Opening an output file: C:/Users/ydung/Desktop/data/grade10_Science/grade10_physics/svgs/palette.png.
Successfully opened the file.
detected 8 logical cores
Stream mapping:
  Stream #0:0 -> #0:0 (png (native) -> png (native))
cur_dts is invalid (this is harmless if it occurs once at the start per stream)
    Last message repeated 7 times
[graph 0 input from stream 0:0 @ 0000000000e69800] Setting 'video_size' to value '2000x1600'
[graph 0 input from stream 0:0 @ 0000000000e69800] Setting 'pix_fmt' to value '28'
[graph 0 input from stream 0:0 @ 0000000000e69800] Setting 'time_base' to value '1/8'
[graph 0 input from stream 0:0 @ 0000000000e69800] Setting 'pixel_aspect' to value '23622/23622'
[graph 0 input from stream 0:0 @ 0000000000e69800] Setting 'sws_param' to value 'flags=2'
[graph 0 input from stream 0:0 @ 0000000000e69800] Setting 'frame_rate' to value '8/1'
[graph 0 input from stream 0:0 @ 0000000000e69800] w:2000 h:1600 pixfmt:rgba tb:1/8 fr:8/1 sar:23622/23622 sws_param:flags=2
[format @ 000000000270ee60] compat: called with args=[rgb24|rgba|rgb48be|rgba64be|pal8|gray|ya8|gray16be|ya16be|monob]
[format @ 000000000270ee60] Setting 'pix_fmts' to value 'rgb24|rgba|rgb48be|rgba64be|pal8|gray|ya8|gray16be|ya16be|monob'
[auto_scaler_0 @ 00000000026d04e0] Setting 'flags' to value 'bicubic'
[auto_scaler_0 @ 00000000026d04e0] w:iw h:ih flags:'bicubic' interl:0
[Parsed_palettegen_0 @ 0000000002679ae0] auto-inserting filter 'auto_scaler_0' between the filter 'graph 0 input from stream 0:0' and the filter 'Parsed_palettegen_0'
[auto_scaler_1 @ 0000000002702ac0] Setting 'flags' to value 'bicubic'
[auto_scaler_1 @ 0000000002702ac0] w:iw h:ih flags:'bicubic' interl:0
[format @ 000000000270ee60] auto-inserting filter 'auto_scaler_1' between the filter 'Parsed_palettegen_0' and the filter 'format'
[AVFilterGraph @ 00000000026d0bc0] query_formats: 4 queried, 1 merged, 2 already done, 0 delayed
[auto_scaler_1 @ 0000000002702ac0] picking rgba out of 9 ref:bgra alpha:1
[swscaler @ 0000000003523a20] Forcing full internal H chroma due to input having non subsampled chroma
[auto_scaler_0 @ 00000000026d04e0] w:2000 h:1600 fmt:rgba sar:23622/23622 -> w:2000 h:1600 fmt:bgra sar:1/1 flags:0x4
[swscaler @ 000000000a1b3de0] Forcing full internal H chroma due to input having non subsampled chroma
[auto_scaler_1 @ 0000000002702ac0] w:16 h:16 fmt:bgra sar:1/1 -> w:16 h:16 fmt:rgba sar:1/1 flags:0x4
Output #0, image2, to 'C:/Users/ydung/Desktop/data/grade10_Science/grade10_physics/svgs/palette.png':
  Metadata:
    encoder         : Lavf57.82.100
    Stream #0:0, 0, 1/8: Video: png, 1 reference frame, rgba, 16x16 [SAR 1:1 DAR 1:1], 0/1, q=2-31, 200 kb/s, 8 fps, 8 tbn, 8 tbc
    Metadata:
      encoder         : Lavc57.106.101 png
cur_dts is invalid (this is harmless if it occurs once at the start per stream)
    Last message repeated 6 times
[Parsed_palettegen_0 @ 0000000002679ae0] 255(+1) colors generated out of 1652 colors; ratio=0.154358
[Parsed_palettegen_0 @ 0000000002679ae0] Dupped color: FF483A00
[Parsed_palettegen_0 @ 0000000002679ae0] Dupped color: FFC29C00
[swscaler @ 000000000a1b3de0] Forcing full internal H chroma due to input having non subsampled chroma
[auto_scaler_1 @ 0000000002702ac0] w:16 h:16 fmt:bgra sar:0/1 -> w:16 h:16 fmt:rgba sar:0/1 flags:0x4
cur_dts is invalid (this is harmless if it occurs once at the start per stream)
Clipping frame in rate conversion by 0.000008
cur_dts is invalid (this is harmless if it occurs once at the start per stream)
[out_0_0 @ 00000000026cd580] EOF on sink link out_0_0:default.
No more output streams to write to, finishing.
[image2 @ 000000000267e7a0] Opening 'C:/Users/ydung/Desktop/data/grade10_Science/grade10_physics/svgs/palette.png' for writing
[file @ 0000000003548f00] Setting default whitelist 'file,crypto'
[AVIOContext @ 000000000a464820] Statistics: 0 seeks, 1 writeouts
frame=    1 fps=0.0 q=-0.0 Lsize=N/A time=00:00:00.12 bitrate=N/A speed=0.939x    
[AVIOContext @ 0000000002675e00] Statistics: 0 seeks, 1 writeouts
video:1kB audio:0kB subtitle:0kB other streams:0kB global headers:0kB muxing overhead: unknown
Input file #0 (C:/Users/ydung/Desktop/data/grade10_Science/grade10_physics/svgs/frame%04d.png):
  Input stream #0:0 (video): 7 packets read (1941902 bytes); 7 frames decoded; 
  Total: 7 packets (1941902 bytes) demuxed
Output file #0 (C:/Users/ydung/Desktop/data/grade10_Science/grade10_physics/svgs/palette.png):
  Output stream #0:0 (video): 1 frames encoded; 1 packets muxed (984 bytes); 
  Total: 1 packets (984 bytes) muxed
7 frames successfully decoded, 0 decoding errors
